<?xml version="1.0" standalone="no"?><!DOCTYPE svg PUBLIC "-//W3C//DTD SVG 1.1//EN" "http://www.w3.org/Graphics/SVG/1.1/DTD/svg11.dtd"><svg t="1740471499368" class="icon" viewBox="0 0 1024 1024" version="1.1" xmlns="http://www.w3.org/2000/svg" p-id="5523" xmlns:xlink="http://www.w3.org/1999/xlink" width="64" height="64"><path d="M128 853.333333h768q4.224 0 8.32 0.853334 4.138667 0.768 8.021333 2.389333 3.84 1.621333 7.381334 3.968 3.456 2.304 6.442666 5.290667 2.986667 2.986667 5.290667 6.442666 2.346667 3.498667 3.968 7.381334 1.621333 3.882667 2.432 8.021333 0.810667 4.138667 0.810667 8.32t-0.853334 8.32q-0.768 4.138667-2.389333 8.021333-1.621333 3.84-3.968 7.381334-2.304 3.456-5.290667 6.442666-2.986667 2.986667-6.442666 5.290667-3.498667 2.346667-7.381334 3.968-3.882667 1.621333-8.021333 2.432Q900.266667 938.666667 896 938.666667H128q-4.181333 0-8.32-0.853334-4.138667-0.768-8.021333-2.389333-3.84-1.621333-7.381334-3.968-3.456-2.304-6.442666-5.290667-2.986667-2.986667-5.290667-6.442666-2.346667-3.498667-3.968-7.381334-1.621333-3.882667-2.432-8.021333Q85.333333 900.181333 85.333333 896t0.853334-8.32q0.768-4.138667 2.389333-8.021333 1.621333-3.84 3.968-7.381334 2.304-3.456 5.290667-6.442666 2.986667-2.986667 6.442666-5.290667 3.498667-2.346667 7.381334-3.968 3.882667-1.621333 8.021333-2.432Q123.818667 853.333333 128 853.333333zM128 85.333333h298.666667q4.181333 0 8.32 0.853334 4.138667 0.768 8.021333 2.389333 3.84 1.621333 7.381333 3.968 3.456 2.304 6.442667 5.290667 2.986667 2.986667 5.290667 6.442666 2.346667 3.498667 3.968 7.381334 1.621333 3.882667 2.432 8.021333Q469.333333 123.818667 469.333333 128t-0.853333 8.32q-0.768 4.138667-2.389333 8.021333-1.621333 3.84-3.968 7.381334-2.304 3.456-5.290667 6.442666-2.986667 2.986667-6.442667 5.290667-3.498667 2.346667-7.381333 3.968-3.882667 1.621333-8.021333 2.432Q430.848 170.666667 426.666667 170.666667H128q-4.181333 0-8.32-0.853334-4.138667-0.768-8.021333-2.389333-3.84-1.621333-7.381334-3.968-3.456-2.304-6.442666-5.290667-2.986667-2.986667-5.290667-6.442666-2.346667-3.498667-3.968-7.381334-1.621333-3.882667-2.432-8.021333Q85.333333 132.181333 85.333333 128t0.853334-8.32q0.768-4.138667 2.389333-8.021333 1.621333-3.84 3.968-7.381334 2.304-3.456 5.290667-6.442666 2.986667-2.986667 6.442666-5.290667 3.498667-2.346667 7.381334-3.968 3.882667-1.621333 8.021333-2.432Q123.818667 85.333333 128 85.333333z" fill="#515151" p-id="5524"></path><path d="M512 466.346667a171.861333 171.861333 0 0 0 48.341333 121.813333 170.368 170.368 0 0 0 279.125334-51.754667A171.904 171.904 0 0 0 853.333333 471.04v-4.693333C853.333333 353.706667 680.32 170.666667 680.32 170.666667S512 353.706667 512 466.346667z" fill="#515151" p-id="5525"></path><path d="M85.333333 128q0-4.181333 0.853334-8.32 0.768-4.138667 2.389333-8.021333 1.621333-3.84 3.968-7.381334 2.304-3.456 5.290667-6.442666 2.986667-2.986667 6.442666-5.290667 3.498667-2.346667 7.381334-3.968 3.882667-1.621333 8.021333-2.432Q123.818667 85.333333 128 85.333333t8.32 0.853334q4.138667 0.768 8.021333 2.389333 3.84 1.621333 7.381334 3.968 3.456 2.304 6.442666 5.290667 2.986667 2.986667 5.290667 6.442666 2.346667 3.498667 3.968 7.381334 1.621333 3.882667 2.432 8.021333Q170.666667 123.818667 170.666667 128v768q0 4.224-0.853334 8.32-0.768 4.138667-2.389333 8.021333-1.621333 3.84-3.968 7.381334-2.304 3.456-5.290667 6.442666-2.986667 2.986667-6.442666 5.290667-3.498667 2.346667-7.381334 3.968-3.882667 1.621333-8.021333 2.432Q132.181333 938.666667 128 938.666667t-8.32-0.853334q-4.138667-0.768-8.021333-2.389333-3.84-1.621333-7.381334-3.968-3.456-2.304-6.442666-5.290667-2.986667-2.986667-5.290667-6.442666-2.346667-3.498667-3.968-7.381334-1.621333-3.882667-2.432-8.021333Q85.333333 900.266667 85.333333 896V128zM853.333333 725.333333q0-4.181333 0.853334-8.32 0.768-4.138667 2.389333-8.021333 1.621333-3.84 3.968-7.381333 2.304-3.456 5.290667-6.442667 2.986667-2.986667 6.442666-5.290667 3.498667-2.346667 7.381334-3.968 3.882667-1.621333 8.021333-2.432Q891.818667 682.666667 896 682.666667t8.32 0.853333q4.138667 0.768 8.021333 2.389333 3.84 1.621333 7.381334 3.968 3.456 2.304 6.442666 5.290667 2.986667 2.986667 5.290667 6.442667 2.346667 3.498667 3.968 7.381333 1.621333 3.882667 2.432 8.021333 0.810667 4.138667 0.810667 8.32v170.666667q0 4.181333-0.853334 8.32-0.768 4.138667-2.389333 8.021333-1.621333 3.84-3.968 7.381334-2.304 3.456-5.290667 6.442666-2.986667 2.986667-6.442666 5.290667-3.498667 2.346667-7.381334 3.968-3.882667 1.621333-8.021333 2.432Q900.181333 938.666667 896 938.666667t-8.32-0.853334q-4.138667-0.768-8.021333-2.389333-3.84-1.621333-7.381334-3.968-3.456-2.304-6.442666-5.290667-2.986667-2.986667-5.290667-6.442666-2.346667-3.498667-3.968-7.381334-1.621333-3.882667-2.432-8.021333Q853.333333 900.181333 853.333333 896v-170.666667z" fill="#515151" p-id="5526"></path></svg>