<?xml version="1.0" standalone="no"?><!DOCTYPE svg PUBLIC "-//W3C//DTD SVG 1.1//EN" "http://www.w3.org/Graphics/SVG/1.1/DTD/svg11.dtd"><svg class="icon" width="64px" height="64.00px" viewBox="0 0 1024 1024" version="1.1" xmlns="http://www.w3.org/2000/svg"><path fill="#515151" d="M594.688 246.4c72.96 0 133.76 54.229333 133.76 122.026667 0 33.92-14.592 63.317333-38.912 88.192l-245.632 230.570666c-7.253333 6.784-17.024 13.568-26.752 15.786667-29.184 11.349333-63.232 4.565333-87.552-15.786667-14.592-13.568-24.32-33.92-24.32-52.010666 0-9.045333 2.432-20.309333 4.864-27.093334 4.864-9.045333 9.728-18.090667 17.066667-24.874666l226.133333-210.218667c9.728-9.045333 26.752-9.045333 38.912 0a24.661333 24.661333 0 0 1 7.253333 18.090667 24.661333 24.661333 0 0 1-7.253333 18.048l-226.133333 210.261333c-9.770667 9.045333-9.770667 24.832 0 36.138667a27.904 27.904 0 0 0 36.437333 0l245.632-228.266667c14.592-13.610667 24.32-31.658667 24.32-52.053333 0-20.309333-7.296-38.4-24.32-51.968-14.592-13.568-36.48-22.613333-55.936-22.613334-21.888 0-41.386667 6.826667-55.936 22.613334l-243.2 221.525333a128.085333 128.085333 0 0 0-29.141333 40.704c-7.296 15.786667-9.728 31.658667-9.728 47.445333 0 15.829333 2.432 31.658667 9.728 47.488 7.253333 15.786667 16.981333 29.397333 29.141333 40.704 51.072 47.445333 136.192 49.706667 187.306667 0l245.546666-228.309333c9.770667-9.045333 26.752-9.045333 38.912 0 4.864 4.522667 7.296 11.306667 7.296 18.048a24.661333 24.661333 0 0 1-7.253333 18.090667l-245.632 228.309333c-17.024 15.829333-38.912 29.44-60.8 38.442667a190.122667 190.122667 0 0 1-141.056 0c-70.485333-27.136-116.693333-90.453333-116.693333-160.512 0-22.613333 4.864-45.226667 14.592-65.536 9.728-22.613333 24.32-40.704 41.344-58.794667l245.589333-228.266667a139.178667 139.178667 0 0 1 43.776-27.136c14.592-6.826667 31.573333-9.045333 48.64-9.045333zM387.968 811.52c-24.32 0-48.64-4.522667-72.96-13.568-72.96-27.136-119.125333-92.672-119.125333-165.034667 0-22.613333 4.864-45.226667 14.592-67.797333a176.213333 176.213333 0 0 1 41.344-58.752l245.589333-228.309333c12.16-11.306667 29.184-22.613333 46.208-27.136a135.509333 135.509333 0 0 1 51.072-9.045334h4.864c72.96 2.261333 133.717333 58.752 133.717333 126.592 0 33.877333-14.549333 67.84-41.301333 92.672l-243.2 228.266667a88.106667 88.106667 0 0 1-29.184 18.133333c-31.573333 11.306667-68.096 4.522667-92.416-18.090666-17.024-15.786667-24.32-33.92-24.32-56.533334 0-11.264 2.432-20.309333 7.296-29.354666 4.864-9.045333 9.728-18.090667 19.456-27.136l226.133333-210.218667a37.546667 37.546667 0 0 1 21.930667-9.045333c7.253333 0 17.024 2.261333 21.888 9.045333 4.864 4.522667 9.728 13.568 9.728 20.352 0 6.784-2.432 15.786667-9.728 20.309333l-226.133333 210.261334c-7.338667 6.784-7.338667 20.309333 0 29.354666 4.821333 4.522667 9.685333 6.826667 14.549333 6.826667 4.864 0 12.16-2.304 14.592-6.826667l245.632-228.266666c14.592-13.610667 21.888-31.658667 21.888-49.749334 0-18.090667-7.296-36.181333-21.888-49.749333a72.661333 72.661333 0 0 0-51.072-20.352h-2.432c-19.456 0-38.912 6.826667-51.072 20.352l-248.064 230.570667a128.128 128.128 0 0 0-29.141333 40.704c-7.296 13.568-9.728 29.397333-9.728 45.226666 0 15.786667 2.432 31.616 9.728 45.184 7.253333 15.786667 16.981333 27.136 29.141333 38.4a134.570667 134.570667 0 0 0 182.4 0l245.632-228.266666a32.512 32.512 0 0 1 43.776 0c4.821333 4.522667 9.685333 13.568 9.685333 20.309333 0 6.826667-2.432 15.829333-9.685333 20.352l-243.2 228.309333c-17.024 18.090667-38.912 29.44-63.232 38.442667-24.32 9.045333-48.64 13.568-72.96 13.568z m204.288-560.64c-14.592 0-29.184 4.565333-43.776 9.088a127.573333 127.573333 0 0 0-41.344 27.093333l-248.021333 226.090667c-17.066667 15.786667-31.616 33.877333-38.912 56.490667a142.677333 142.677333 0 0 0-14.592 63.274666c0 70.101333 43.776 131.114667 114.261333 158.250667 43.776 15.786667 92.416 15.786667 136.192 0 21.888-9.045333 43.776-20.352 60.8-36.181333l245.589333-230.570667c4.864-4.522667 7.296-9.045333 7.296-13.568 0-4.522667-2.389333-11.264-7.253333-13.525333-9.770667-9.045333-21.888-9.045333-31.616 0l-245.632 226.048c-53.504 49.706667-141.056 49.706667-196.992 0-12.16-11.306667-24.32-27.136-29.141333-42.965334a110.805333 110.805333 0 0 1-9.728-47.488c0-15.786667 2.432-33.877333 9.728-47.445333 7.253333-15.829333 16.981333-29.397333 29.141333-42.965333l245.632-228.266667c14.592-15.872 36.48-22.613333 60.8-22.613333 21.888 0 43.776 9.002667 58.368 22.613333 17.024 13.525333 24.32 33.877333 24.32 56.490667 0 20.352-9.728 40.661333-24.32 56.490666l-243.2 226.048a32.512 32.512 0 0 1-43.776 0 27.264 27.264 0 0 1 0-40.661333l226.133333-210.261333c4.906667-4.48 7.338667-9.002667 7.338667-13.525334 0-4.522667-2.432-11.306667-7.296-13.568-4.864-4.522667-9.728-6.826667-14.592-6.826666-4.864 0-12.16 2.304-14.592 6.826666l-226.133333 210.218667a81.365333 81.365333 0 0 0-17.066667 22.613333c-4.864 9.045333-4.864 18.048-4.864 27.093334 0 18.090667 7.296 36.181333 21.888 49.749333 21.888 20.352 53.504 27.136 80.256 15.786667 9.728-4.48 17.066667-9.002667 24.32-15.786667l245.632-228.309333c24.32-22.613333 36.48-52.010667 36.48-83.626667 0-65.578667-58.368-119.808-128.896-119.808h-2.432V250.88zM784.341333 1024H237.226667C130.218667 1024 42.666667 944.896 42.666667 845.44V178.56C42.666667 81.365333 130.218667 0 237.226667 0h330.666666c51.114667 0 102.186667 20.352 138.666667 54.272l218.88 205.653333c36.437333 33.92 55.893333 76.885333 55.893333 124.373334v461.141333C978.901333 944.853333 891.349333 1024 784.341333 1024zM237.226667 76.842667c-63.232 0-114.346667 45.226667-114.346667 103.978666v666.88c0 56.490667 51.114667 103.978667 114.346667 103.978667h547.114666c63.232 0 114.346667-45.226667 114.346667-104.021333V384.341333c0-27.136-12.202667-52.010667-31.658667-72.362666l-218.88-205.653334a120.405333 120.405333 0 0 0-82.645333-31.701333H237.226667v2.261333z" /></svg>