<?xml version="1.0" standalone="no"?><!DOCTYPE svg PUBLIC "-//W3C//DTD SVG 1.1//EN" "http://www.w3.org/Graphics/SVG/1.1/DTD/svg11.dtd"><svg class="icon" width="24px" height="22.00px" viewBox="0 0 1117 1024" version="1.1" xmlns="http://www.w3.org/2000/svg"><path fill="#515151" d="M895.578601 0.001345A179.519134 179.519134 0 0 1 1075.770091 178.848122v627.308435a179.519134 179.519134 0 0 1-179.519134 178.846777H178.846778A178.846778 178.846778 0 0 1 0 806.156557V178.848122A178.846778 178.846778 0 0 1 178.846778 0.001345z m89.423388 358.365911H89.423389v447.789301a89.423389 89.423389 0 0 0 82.699826 89.423388h723.455386a88.751033 88.751033 0 0 0 89.423388-82.699825V358.367256zM391.983727 474.684897a33.617815 33.617815 0 0 1 22.187758 6.723563 24.877183 24.877183 0 0 1 6.723563 16.136552v188.932122a90.095745 90.095745 0 0 1-10.757701 45.720229 92.112814 92.112814 0 0 1-26.894252 32.945459 121.696492 121.696492 0 0 1-38.32431 19.498333 166.072008 166.072008 0 0 1-88.751032 0 114.972928 114.972928 0 0 1-38.32431-19.498333 92.78517 92.78517 0 0 1-28.238964-32.273103 98.164021 98.164021 0 0 1-10.757701-46.392585V500.234437a21.515402 21.515402 0 0 1 6.723563-15.464195 28.238965 28.238965 0 0 1 22.187758-7.395919 30.256034 30.256034 0 0 1 21.515402 6.723563 24.877183 24.877183 0 0 1 6.723563 16.136551v162.03787a163.382583 163.382583 0 0 0 0 32.945459 67.235631 67.235631 0 0 0 10.757701 25.54954 51.099079 51.099079 0 0 0 19.498333 16.136551 71.269769 71.269769 0 0 0 31.600746 6.051207 67.235631 67.235631 0 0 0 30.92839-6.051207 41.013735 41.013735 0 0 0 19.498333-15.464195 59.167355 59.167355 0 0 0 10.085345-24.877183 177.502065 177.502065 0 0 0 0-34.290172V500.234437a23.532471 23.532471 0 0 1 6.051206-15.464195 28.238965 28.238965 0 0 1 22.187758-7.395919z m175.484996 4.706494a235.997064 235.997064 0 0 1 45.720229 4.034138 77.993332 77.993332 0 0 1 32.945459 16.808908 58.494999 58.494999 0 0 1 20.170689 26.894252 108.249365 108.249365 0 0 1 6.051207 40.341379 88.078676 88.078676 0 0 1-16.808908 58.494998 84.044538 84.044538 0 0 1-47.064941 26.221896h-17.481264l85.389251 84.716895a28.911321 28.911321 0 0 1 9.412988 20.170689 26.221896 26.221896 0 0 1-8.740632 20.170689 33.617815 33.617815 0 0 1-20.843046 9.412989 23.532471 23.532471 0 0 1-19.498332-6.723563L521.076138 659.582882v109.594078a20.170689 20.170689 0 0 1-6.723563 15.464195 30.256034 30.256034 0 0 1-22.187758 7.395919 27.566609 27.566609 0 0 1-21.515402-10.757701 22.187758 22.187758 0 0 1-6.051207-12.102413V508.302713a50.426723 50.426723 0 0 1 0-15.464195A17.481264 17.481264 0 0 1 470.649415 484.097886a32.945459 32.945459 0 0 1 11.430057-4.034138 82.027469 82.027469 0 0 1 18.15362 0z m190.949191-4.706494a33.617815 33.617815 0 0 1 20.843046 6.051207 19.498333 19.498333 0 0 1 8.068275 16.136551v236.66942H874.063199a24.204827 24.204827 0 0 1 16.136551 6.051207 22.860114 22.860114 0 0 1 6.723563 19.498333 24.877183 24.877183 0 0 1-7.395919 19.498333 24.204827 24.204827 0 0 1-15.464195 5.37885h-112.95586a30.256034 30.256034 0 0 1-22.860114-8.740632 33.617815 33.617815 0 0 1-8.068276-22.860114V500.234437a19.498333 19.498333 0 0 1 9.412989-19.498333 36.979597 36.979597 0 0 1 20.170689-6.051207z m-190.949191 54.460861h-46.392585v77.320975h46.392585A73.286837 73.286837 0 0 0 605.120676 599.070814a36.307241 36.307241 0 0 0 11.430057-31.600746 36.979597 36.979597 0 0 0-4.034137-18.825977 36.979597 36.979597 0 0 0-7.39592-12.77477 41.686091 41.686091 0 0 0-16.136551-5.37885 82.699826 82.699826 0 0 0-18.153621 0z m328.109878-439.721024H178.846778a90.768101 90.768101 0 0 0-89.423389 82.699825V268.943867h895.5786V178.848122a90.095745 90.095745 0 0 0-82.699825-89.423388zM178.846778 134.472606a44.375516 44.375516 0 0 1 38.996665 22.187758 45.047873 45.047873 0 0 1 0 45.047873 45.720229 45.720229 0 0 1-38.996665 22.187758 45.047873 45.047873 0 0 1 0-89.423389z m134.471261 0a44.375516 44.375516 0 0 1 38.996666 22.187758 45.047873 45.047873 0 0 1 0 45.047873 45.720229 45.720229 0 0 1-38.996666 22.187758 45.047873 45.047873 0 1 1 0-89.423389z m134.471261 0a44.375516 44.375516 0 0 1 38.996666 22.187758 45.047873 45.047873 0 0 1 0 45.047873 45.720229 45.720229 0 0 1-38.996666 22.187758 45.047873 45.047873 0 1 1 0-89.423389z" /></svg>